<?xml version="1.0" encoding="UTF-8"?>
<svg width="50px" height="50px" viewBox="0 0 50 50" version="1.1" xmlns="http://www.w3.org/2000/svg" xmlns:xlink="http://www.w3.org/1999/xlink">
    <!-- Generator: sketchtool 59 (101010) - https://sketch.com -->
    <title>62CB040D-F970-4A78-84DD-97407724AF7F</title>
    <desc>Created with sketchtool.</desc>
    <g id="WellWorks_webdesign" stroke="none" stroke-width="1" fill="none" fill-rule="evenodd">
        <g id="Wellworks_mainpage" transform="translate(-360.000000, -265.000000)" fill="#C6D1F3">
            <g id="content" transform="translate(0.000000, -14.000000)">
                <g id="slider" transform="translate(358.000000, 0.000000)">
                    <g id="slogan" transform="translate(0.000000, 279.000000)">
                        <path d="M7,40 C9.76142375,40 12,42.2385763 12,45 C12,47.7614237 9.76142375,50 7,50 C4.23857625,50 2,47.7614237 2,45 C2,42.2385763 4.23857625,40 7,40 Z M27,40 C29.7614237,40 32,42.2385763 32,45 C32,47.7614237 29.7614237,50 27,50 C24.2385763,50 22,47.7614237 22,45 C22,42.2385763 24.2385763,40 27,40 Z M47,40 C49.7614237,40 52,42.2385763 52,45 C52,47.7614237 49.7614237,50 47,50 C44.2385763,50 42,47.7614237 42,45 C42,42.2385763 44.2385763,40 47,40 Z M7,20 C9.76142375,20 12,22.2385763 12,25 C12,27.7614237 9.76142375,30 7,30 C4.23857625,30 2,27.7614237 2,25 C2,22.2385763 4.23857625,20 7,20 Z M27,20 C29.7614237,20 32,22.2385763 32,25 C32,27.7614237 29.7614237,30 27,30 C24.2385763,30 22,27.7614237 22,25 C22,22.2385763 24.2385763,20 27,20 Z M47,20 C49.7614237,20 52,22.2385763 52,25 C52,27.7614237 49.7614237,30 47,30 C44.2385763,30 42,27.7614237 42,25 C42,22.2385763 44.2385763,20 47,20 Z M7,0 C9.76142375,0 12,2.23857625 12,5 C12,7.76142375 9.76142375,10 7,10 C4.23857625,10 2,7.76142375 2,5 C2,2.23857625 4.23857625,0 7,0 Z M27,0 C29.7614237,0 32,2.23857625 32,5 C32,7.76142375 29.7614237,10 27,10 C24.2385763,10 22,7.76142375 22,5 C22,2.23857625 24.2385763,0 27,0 Z M47,0 C49.7614237,0 52,2.23857625 52,5 C52,7.76142375 49.7614237,10 47,10 C44.2385763,10 42,7.76142375 42,5 C42,2.23857625 44.2385763,0 47,0 Z" id="dots"></path>
                    </g>
                </g>
            </g>
        </g>
    </g>
</svg>