<?xml version="1.0" encoding="utf-8"?>
<!-- Generator: Adobe Illustrator 22.1.0, SVG Export Plug-In . SVG Version: 6.00 Build 0)  -->
<svg version="1.1" id="Layer_1" xmlns="http://www.w3.org/2000/svg" xmlns:xlink="http://www.w3.org/1999/xlink" x="0px" y="0px"
	 viewBox="0 0 233.4 88.3" style="enable-background:new 0 0 233.4 88.3;" xml:space="preserve">
<style type="text/css">
	.st0{fill:#452F92;}
</style>
<g>
	<g>
		<path class="st0" d="M172.2,12.8l-14.7,34.4h-9.3L142,28.8l-6.2,18.5h-9.4l-14.7-34.4h10.4l8.6,21.1l7.1-21.1h8.4l7.1,21.1
			l8.6-21.1H172.2z"/>
		<path class="st0" d="M204.5,40.6c-3.8,4.4-8.4,7.8-15,7.8c-9.4,0-17.2-7-18.2-16.4c-1.1-10.5,7.4-20.4,18.3-20.4
			c11.4,0,18.5,11.2,16.6,22h-25.6c1.4,3.6,4.9,6,8.9,6c2.8,0,5.4-1.3,7.6-3.6L204.5,40.6z M180.6,27h17c0-3.6-4.1-6.6-8.1-6.6
			C184.7,20.4,180.6,23.6,180.6,27z"/>
		<path class="st0" d="M209.6,0H220v47.3h-10.4V0z"/>
		<path class="st0" d="M223,0h10.4v47.3H223V0z"/>
	</g>
	<g>
		<g>
			<polygon points="68.2,17.6 62.4,12.8 45.5,33.6 39,25.6 43.9,19.6 24.4,19.6 29.2,25.6 22.8,33.6 5.9,12.8 0,17.6 22.8,45.5 
				29.2,37.7 23.3,79.8 34.1,87.4 45,79.8 39,37.7 45.5,45.5 			"/>
			<g>
				<path d="M156.3,61.9l-10.8,25.4h-6.8L134,73.7l-4.5,13.6h-6.9l-10.8-25.4h7.6l6.3,15.6l5.2-15.6h6.2l5.2,15.6l6.3-15.6H156.3z"
					/>
				<path d="M183.4,74.7c0,1.8-0.4,3.6-1.1,5.3c-0.7,1.6-1.7,3.1-2.9,4.3c-1.2,1.3-2.7,2.2-4.3,2.9c-1.7,0.7-3.4,1.1-5.3,1.1
					c-1.8,0-3.6-0.3-5.3-1c-1.6-0.7-3.1-1.7-4.3-2.9c-1.2-1.2-2.2-2.7-2.9-4.3c-0.7-1.7-1-3.4-1-5.3c0-1.8,0.3-3.6,1-5.3
					c0.7-1.6,1.7-3.1,2.9-4.3c1.2-1.2,2.7-2.2,4.3-2.9c1.7-0.7,3.4-1.1,5.3-1.1c1.8,0,3.6,0.3,5.3,1.1c1.6,0.6,3.1,1.6,4.3,2.9
					c1.2,1.3,2.2,2.7,2.9,4.3C183,71.1,183.3,72.9,183.4,74.7z M176.6,74.7c0-3.8-3.1-6.8-6.8-6.8c-3.7,0-6.8,3.1-6.8,6.8
					c0,3.8,3.1,6.9,6.8,6.9C173.6,81.6,176.6,78.5,176.6,74.7z"/>
				<path d="M202.1,61.5V68c-0.5-0.1-1-0.1-1.6-0.1c-3.6,0-6.8,2.8-6.8,7.7c0,3.3,0,11.7,0,11.7h-7.6V62h7.6v3
					c0.3-0.8,1.7-3.7,6-3.7C200.5,61.2,201.4,61.3,202.1,61.5z"/>
				<path d="M233.4,87.3h-10.2L215.8,77l-3.3,3.2v7.1h-7.7V52.5h7.7v17l8-7.5h9.4l-9.8,10L233.4,87.3z"/>
			</g>
		</g>
		<rect x="88.6" y="12.8" class="st0" width="2.8" height="74.5"/>
	</g>
</g>
</svg>
